/* XPM */
static char *_2b754e48032496cb2d38e588f9d1b9cTHWao8WyjQJoXQB2[] = {
/* columns rows colors chars-per-pixel */
"32 32 8 1 ",
"  c #337504",
". c #337803",
"X c #A3742E",
"o c #956A2A",
"O c #306D05",
"+ c #8E6228",
"@ c #357B05",
"# c #317105",
/* pixels */
"              ..              ..",
"XXXXXXXXXXXXXooXXXXXXXXXXXXXXXXX",
"XXXXXXXXXooXooXXXXXXXXXXXXXXXXXX",
"X....XXXXXooooooXXXXXXXXXXXXXXXX",
"Xo....XXXXXoXooXXXXoXXXXXXXXXXXX",
"Xoo...X...oXXXXXXXXoXXXXXoooXXXX",
"XXoO.....ooXXXXXXXXXXXXXXXoooXXX",
"X...O...++oXXXXXXXXXXXXXXXXooXoo",
"XX...o.+++@@@@oXXXXXXXXXoooXoooX",
"XXo+++oo+.@@@ooXoooXXXXXXoooXoXX",
"XXXX@@@@o...ooXXXoooXXXXXXooXXXX",
"XXX##@@@.......oooXXXXXXXXXoXXXX",
"oooo##@... ...oooooXXXXXXXXXXXXX",
"#oo...#..  ..@@@  oooXXXXXXXXXXX",
"#  #... . ..@@@  OOOOooXXXXXXXXX",
"     ...   @@@  OOOOoooXXXXXXXXX",
"              ..OOOoooXXXXXXXXXX",
"#  ## @@@@O  ..#O    ooooo   XXX",
"....#@@@@OO         ooooo   ooXX",
"#....@@@##         ++o###  o  XX",
"##.....#@@@@O   . ++ooo## o  XXX",
".. ... ..@@OO  . ....ooo#oo ooXX",
"... . ....##   #....OOoooooooXXX",
"#...     ##      ..OOo....oXXXXX",
"          @@@@#      ....oooXXXX",
"         .@@@OO  ... ...OooooXXX",
"    @@@@ ...##  OO.....#@@@@ooXX",
"   ##@@@.......# OO...#..@@ooXXX",
"    ##@... ...##  ##.+....ooXXXX",
".  ...#..  ..#...  +++++...oXooX",
"## #... .  . ... OOOO+o...ooooXX",
"#    ...    ...#OOOO++oooooXoXXX"
};
