/* XPM */
static char *f8c0a1f39329401093bdba00df7258ddbcqagjF7gJe6cTlG[] = {
/* columns rows colors chars-per-pixel */
"35 32 192 2 ",
"   c black",
".  c #141412",
"X  c #141412",
"o  c #141412",
"O  c #141412",
"+  c #141412",
"@  c #171918",
"#  c #1A1E1D",
"$  c #191D1D",
"%  c None",
"&  c #141412",
"*  c #32474F",
"=  c #5C8EA5",
"-  c #364D57",
";  c #171918",
":  c #191D1C",
">  c #181A19",
",  c #141412",
"<  c #191C1C",
"1  c #59879D",
"2  c #5B8598",
"3  c #567D8E",
"4  c #354951",
"5  c #181B1A",
"6  c #1C2122",
"7  c #354C55",
"8  c #56849A",
"9  c #548195",
"0  c #568499",
"q  c #38515C",
"w  c #1A1D1D",
"e  c #33454E",
"r  c #547A8B",
"t  c #59879C",
"y  c #1D2324",
"u  c #141412",
"i  c #171817",
"p  c #3F4D52",
"a  c #493727",
"s  c #463A2E",
"d  c #364A53",
"f  c #3F5B67",
"g  c #527D90",
"h  c #4A6F80",
"j  c #2C3C42",
"k  c #141412",
"l  c #2A383D",
"z  c #496D7D",
"x  c #405E6B",
"c  c #453B30",
"v  c #404C4F",
"b  c #191C1B",
"n  c #181714",
"m  c #4C3928",
"M  c #32474F",
"N  c #3F5D6A",
"B  c #1B1F1F",
"V  c #3B5662",
"C  c #364D57",
"Z  c #483726",
"A  c #1C1915",
"S  c #2C3C43",
"D  c #486B7B",
"F  c #425F6C",
"G  c #486A7A",
"H  c #2F4249",
"J  c #2C3D44",
"K  c #4B7183",
"L  c #30434A",
"P  c #4E3A28",
"I  c #28211A",
"U  c #292621",
"Y  c #283438",
"T  c #211C17",
"R  c #221C18",
"E  c #283235",
"W  c #292824",
"Q  c #4B3927",
"!  c #171613",
"~  c #3C2E21",
"^  c #3F3C35",
"/  c #50798B",
"(  c #466370",
")  c #2D231D",
"_  c #2E241D",
"`  c #445E6A",
"'  c #41403B",
"]  c #191714",
"[  c #372A1C",
"{  c #3A362E",
"}  c #415963",
"|  c #2F261C",
" . c #30261C",
".. c #40555E",
"X. c #3B3933",
"o. c #181713",
"O. c #1A1814",
"+. c #6A492B",
"@. c #483421",
"#. c #463B2E",
"$. c #3E5A67",
"%. c #3C4F56",
"&. c #3C2E20",
"*. c #3D2E20",
"=. c #3C4C52",
"-. c #453D32",
";. c #68472A",
":. c #1F1B15",
">. c #654529",
",. c #604228",
"<. c #67492E",
"1. c #29363C",
"2. c #263135",
"3. c #252F33",
"4. c #63482E",
"5. c #6C4B2E",
"6. c #594E41",
"7. c #514B41",
"8. c #2B383E",
"9. c #31454D",
"0. c #3E5B67",
"q. c #2B3B41",
"w. c #29373D",
"e. c #4F4A40",
"r. c #6B4C2F",
"t. c #201616",
"y. c #231917",
"u. c #4E3625",
"i. c #6E4B2C",
"p. c #65482E",
"a. c #363738",
"s. c #373938",
"d. c #3C3E39",
"f. c #3B3C39",
"g. c #3B3F42",
"h. c #434E54",
"j. c #39454B",
"k. c #2C3A40",
"l. c #37444A",
"z. c #3B4044",
"x. c #3A3C39",
"c. c #383939",
"v. c #62472F",
"b. c #503726",
"n. c #1B1814",
"m. c #281818",
"M. c #291919",
"N. c #392921",
"B. c #66462A",
"V. c #3C2E22",
"C. c #483527",
"Z. c #4A3927",
"A. c #493827",
"S. c #473426",
"D. c #483C30",
"F. c #4A453D",
"G. c #483D32",
"H. c #483627",
"J. c #3D2F23",
"K. c #63452A",
"L. c #3C2B22",
"P. c #181614",
"I. c #66472A",
"U. c #413323",
"Y. c #523D2A",
"T. c #423424",
"R. c #64452A",
"E. c #3E3222",
"W. c #433424",
"Q. c #403124",
"!. c #3B2B23",
"~. c #3E3223",
"^. c #403323",
"/. c #4D3A28",
"(. c #4B3728",
"). c #281818",
"_. c #221717",
"`. c #1C1815",
"'. c #3B2A22",
"]. c #362720",
"[. c #1D1A15",
"{. c #1A1815",
"}. c #34261F",
"|. c #1E1916",
" X c #161513",
".X c #141412",
"XX c #171613",
"oX c #332520",
"OX c #2E221E",
"+X c #141412",
"@X c #2C211D",
"#X c #191714",
/* pixels */
"                                                                      ",
"    . X X X o                                       O X X X +         ",
"  . @ # # $ % & & & & & & & * = = = - & & & & & & & ; : # # > +       ",
"  , < 1 2 3 4 5 5 5 5 $ 6 6 7 8 9 0 q 6 6 w 5 5 5 5 e r 2 t y u       ",
"  , i p a s d d d d d f g g h j k l z g g x d d d d d c a v b u       ",
"  , n m k k k k k k k k k k M N B V C k k k k k k k k k k Z A u       ",
"  , n m k k k k k k k k k k S D F G H k k k k k k k k k k Z A u       ",
"  , n m k k k k k k k k k k k J K L k k k k k k k k k k k Z A u       ",
"  , n m k k k k k k k k k k k k k k k k k k k k k k k k k Z A u       ",
"  , n m k k k k k k k k k k k k k k k k k k k k k k k k k Z A u       ",
"  , n P I I U j Y T I I I I I I I I I I I I I R E j W I I Q A u       ",
"  , ! ~ ~ ~ ^ / ( ) ~ ~ ~ ~ ~ ~ ~ ~ ~ ~ ~ ~ ~ _ ` / ' ~ ~ ~ ] u       ",
"  , ! [ [ [ { G } | [ [ [ [ [ [ [ [ [ [ [ [ [  ...G X.[ [ [ o.u       ",
"  , O.+.@.@.#.$.%.&.@.@.@.@.@.@.@.@.@.@.@.@.@.*.=.$.-.@.@.;.:.u       ",
"  , O.>.k k k k k k k k k k k k k k k k k k k k k k k k k ,.:.u       ",
"  , O.>.k k k k k k k k k k k k k k k k k k k k k k k k k ,.:.u       ",
"  , O.>.k k k k k k k k k k k k k k k k k k k k k k k k k ,.:.u       ",
"  , O.<.1.2.k k k k k k k k k k k k k k k k k k k k k 3.1.4.:.u       ",
"  , O.5.6.7.8.8.8.8.8.8.9.0.0.q.k w.0.0.M 8.8.8.8.8.8.e.6.r.:.u       ",
"  t.y.u.i.p.a.s.d.f.a.a.g.h.h.j.k.l.h.h.z.a.a.x.d.c.a.v.i.b.n.u       ",
"  m.M.N.i.B.V.C.Z.A.S.S.S.S.S.D.F.G.S.S.S.S.S.a Z.H.J.K.i.L.P.u       ",
"  m.M.N.i.I.U.Y.Y.Y.Y.Y.Y.Y.Y.Y.Y.Y.Y.Y.Y.Y.Y.Y.Y.Y.T.R.i.L.P.u       ",
"  m.M.N.i.I.U.Y.Y.Y.Y.Y.Y.Y.Y.Y.Y.Y.Y.Y.Y.Y.Y.Y.Y.Y.T.R.i.L.P.u       ",
"  m.M.N.i.I.E.W.W.W.W.Q.!.!.!.!.!.!.!.!.!.Q.W.W.W.W.~.R.i.L.P.u       ",
"  m.M.N.i.I.^././././.m (.(.(.(.(.(.(.(.(.m /./././.U.R.i.L.P.u       ",
"  m.M.N.i.I.U.Y.Y.Y.Y.Y.Y.Y.Y.Y.Y.Y.Y.Y.Y.Y.Y.Y.Y.Y.T.R.i.L.P.u       ",
"  m.M.N.i.I.U.Y.Y.Y.Y.Y.Y.Y.Y.Y.Y.Y.Y.Y.Y.Y.Y.Y.Y.Y.T.R.i.L.P.u       ",
"  )._.`.'.].O.[.[.[.[.[.[.[.[.[.[.[.[.[.[.[.[.[.[.[.{.}.'.|. X.X      ",
"    + XXoXOX+X+X+X+X+X+X+X+X+X+X+X+X+X+X+X+X+X+X+X+X+X@XoX#X.X        ",
"                                                                      ",
"                                                                      ",
"                                                                      "
};
