/* XPM */
static char *_de49f2d2e814473b2c771d4b0347e33NMmGA5grkVfUmaby[] = {
/* columns rows colors chars-per-pixel */
"36 32 151 2 ",
"   c black",
".  c #281818",
"X  c #281818",
"o  c #281818",
"O  c #141412",
"+  c #141412",
"@  c #141412",
"#  c #281818",
"$  c #5F3E27",
"%  c #6B462A",
"&  c #3C2B1D",
"*  c #141412",
"=  c #392B1C",
"-  c #644528",
";  c #563C24",
":  c #141412",
">  c #281818",
",  c None",
"<  c #7B5230",
"1  c #8E5E34",
"2  c #503A24",
"3  c #34291E",
"4  c #392C20",
"5  c #79522F",
"6  c #34291E",
"7  c #141412",
"8  c #281818",
"9  c #4A3627",
"0  c #7F5632",
"q  c #5A4128",
"w  c #493827",
"e  c #5A412B",
"r  c #58402A",
"t  c #5C422B",
"y  c #573F2A",
"u  c #5D432B",
"i  c #553E2A",
"p  c #61442B",
"a  c #5A4129",
"s  c #7F5631",
"d  c #463525",
"f  c #141412",
"g  c #67472B",
"h  c #65472B",
"j  c #69482C",
"k  c #64462B",
"l  c #6A492C",
"z  c #62452B",
"x  c #6E4B2C",
"c  c #67482C",
"v  c #63452B",
"b  c #5B412B",
"n  c #63462B",
"m  c #57402A",
"M  c #573E27",
"N  c #473626",
"B  c #473425",
"V  c #7A5330",
"C  c #895B33",
"Z  c #4B3022",
"A  c #3F2C22",
"S  c #5B412A",
"D  c #68482B",
"F  c #433324",
"G  c #3B332A",
"H  c #62472D",
"J  c #422E23",
"K  c #352B24",
"L  c #3D3428",
"P  c #473C2E",
"I  c #534536",
"U  c #373229",
"Y  c #52778A",
"T  c #695D4D",
"R  c #6D4D30",
"E  c #4D514D",
"W  c #3B525D",
"Q  c #3B525C",
"!  c #4A6D7D",
"~  c #5B8BA1",
"^  c #5B8CA3",
"/  c #5A8AA1",
"(  c #4E7688",
")  c #5C8CA2",
"_  c #5D8CA1",
"`  c #476876",
"'  c #36393B",
"]  c #382D23",
"[  c #3D3325",
"{  c #3A2F25",
"}  c #342824",
"|  c #352E2C",
" . c #3A505A",
".. c #2A1C1C",
"X. c #3A505B",
"o. c #342A28",
"O. c #4C3F33",
"+. c #534535",
"@. c #453A2D",
"#. c #473828",
"$. c #503B29",
"%. c #503C29",
"&. c #4F3B29",
"*. c #4B3928",
"=. c #403C33",
"-. c #557F93",
";. c #281818",
":. c #302A27",
">. c #31221E",
",. c #5C4029",
"<. c #4D3A25",
"1. c #523D2A",
"2. c #4E3B28",
"3. c #413E34",
"4. c #59889E",
"5. c #384A53",
"6. c #4D3A26",
"7. c #2D221D",
"8. c #5F4229",
"9. c #4F3A26",
"0. c #3E3426",
"q. c #454A46",
"w. c #558196",
"e. c #5F4129",
"r. c #403323",
"t. c #433424",
"y. c #413224",
"u. c #3C2C23",
"i. c #3B2B22",
"p. c #362821",
"a. c #372B24",
"s. c #3F4245",
"d. c #453625",
"f. c #4B3927",
"g. c #4A3827",
"h. c #473527",
"j. c #281818",
"k. c #251C19",
"l. c #473223",
"z. c #523926",
"x. c #382B1F",
"c. c #30271D",
"v. c #352A1F",
"b. c #231C19",
"n. c #141412",
"m. c #141412",
"M. c #2B211D",
"N. c #332520",
"B. c #1F1A17",
"V. c #141412",
"C. c #2B211C",
/* pixels */
"                                                                        ",
"                                                                        ",
"                                                                        ",
"                                                                        ",
"        . X o                                             O + @         ",
"      # $ % & * * * * * * * * * * * * * * * * * * * * * * = - ; :       ",
"    > , < 1 2 3 4 4 4 4 4 4 4 4 4 4 4 4 4 4 4 4 4 4 4 4 3 2 1 5 6 7     ",
"    8 9 0 1 q w e e r t y u i p p p p p p p p p p p p e w a 1 s d f     ",
"    8 9 0 1 q w p g h j k l z x x x x x x x x x x x x p w a 1 s d f     ",
"    8 9 0 1 q w p x x x x x x x x x x x x x x x x c v b w a 1 s d f     ",
"    8 9 0 1 q w p x x x x x x x x x x x x x x x x n t m w a 1 s d f     ",
"    8 9 0 1 q w p x x x x x x x x x x x x x x x x x x p w a 1 s d f     ",
"    8 9 0 1 M N p x x x x x x x x x x x x x x x x x x p N M 1 s d f     ",
"    8 B V C Z A S D l l l l l l l l l l l l l l l l D S A Z C V F f     ",
"    8 G H x J K L P I I I I I I I I I I I I I I I I P L K J x H U f     ",
"    8 Y T R E W Q ! ~ ~ ~ ~ ~ ~ ^ / / ^ ~ ~ ~ ~ ~ ~ ! Q W E R T ( f     ",
"    8 Y ) _ ` ' ] [ { } } } } |  .....X.| } } } } { [ ] ' ` _ ) ( f     ",
"    8 o.O.+.@.#.$.%.$.&.&.&.*.=.-.;.;.-.=.*.&.&.&.$.%.$.#.@.+.O.:.f     ",
"    8 >.,.l <.w 1.1.1.1.1.1.2.3.4.5.5.4.3.2.1.1.1.1.1.1.w 6.l ,.7.f     ",
"    8 >.8.x 9.w 1.1.1.1.1.1.2.0.q.w.w.q.0.2.1.1.1.1.1.1.w 9.x e.7.f     ",
"    8 >.8.x 9.r.t.t.t.t.y.u.i.p.a.s.s.a.p.i.u.y.t.t.t.t.r.9.x e.7.f     ",
"    8 >.8.x 9.d.f.f.f.f.g.h.h.h.h.h.h.h.h.h.h.g.f.f.f.f.d.9.x e.7.f     ",
"    8 >.8.x 9.w 1.1.1.1.1.1.1.1.1.1.1.1.1.1.1.1.1.1.1.1.w 9.x e.7.f     ",
"    8 >.8.x 9.w 1.1.1.1.1.1.1.1.1.1.1.1.1.1.1.1.1.1.1.1.w 9.x e.7.f     ",
"    j.k.l.z.x.c.v.v.v.v.v.v.v.v.v.v.v.v.v.v.v.v.v.v.v.v.c.x.z.l.b.n.    ",
"      m.M.N.B.V.V.V.V.V.V.V.V.V.V.V.V.V.V.V.V.V.V.V.V.V.V.B.N.C.m.      ",
"                                                                        ",
"                                                                        ",
"                                                                        ",
"                                                                        ",
"                                                                        ",
"                                                                        "
};
