/* XPM */
static char *_470724023404712da730e0948db6aacnAeZxeBCD17kdc10[] = {
/* columns rows colors chars-per-pixel */
"16 16 45 1 ",
"  c #172729",
". c #1B2B2D",
"X c #182729",
"o c #1C2D2F",
"O c #1B2C2E",
"+ c #1A2A2C",
"@ c #19282A",
"# c #1A292B",
"$ c #152425",
"% c #162527",
"& c #19292B",
"* c #1D2E30",
"= c #1C2C2E",
"- c #1F3133",
"; c #1E3032",
": c #172627",
"> c #18282A",
", c #162425",
"< c #1C2E30",
"1 c #1E3133",
"2 c #1D2F31",
"3 c #162426",
"4 c #172527",
"5 c #203436",
"6 c #243A3C",
"7 c #223739",
"8 c #23383A",
"9 c #213436",
"0 c #213537",
"q c #132021",
"w c #1F3234",
"e c #1B2C2D",
"r c #142223",
"t c #1A2B2D",
"y c #203335",
"u c #192A2B",
"i c #182728",
"p c #121E20",
"a c #152325",
"s c #1D3032",
"d c #132022",
"f c #101B1C",
"g c #111D1E",
"h c #121E1F",
"j c #152324",
/* pixels */
" .XoOX+@#.X.#$%%",
"&*=--O*o;-o**:>>",
",+<11O<O21212344",
">*566768867662**",
"$.;7797007977o.#",
"qo<8808778088woe",
"4*266768867665**",
"r+t00y0550y00u+i",
">*56676886766***",
">*566768867662**",
"p+O00y0550y00<+i",
"a*266768867665**",
">*26676886766w**",
"$.s7797007977+.#",
"d>e--2-;;-2--X>>",
"fgh33X+>X>X++jjj"
};
